<svg width="16" height="16" viewBox="0 0 16 16" fill="none" xmlns="http://www.w3.org/2000/svg">
<mask id="mask0_6_50" style="mask-type:alpha" maskUnits="userSpaceOnUse" x="0" y="0" width="16" height="16">
<rect width="16" height="16" fill="#D9D9D9"/>
</mask>
<g mask="url(#mask0_6_50)">
<path d="M3.99996 15.3333C3.63329 15.3333 3.3194 15.2028 3.05829 14.9417C2.79718 14.6805 2.66663 14.3667 2.66663 14V6.66666C2.66663 6.29999 2.79718 5.9861 3.05829 5.72499C3.3194 5.46388 3.63329 5.33332 3.99996 5.33332H5.99996V6.66666H3.99996V14H12V6.66666H9.99996V5.33332H12C12.3666 5.33332 12.6805 5.46388 12.9416 5.72499C13.2027 5.9861 13.3333 6.29999 13.3333 6.66666V14C13.3333 14.3667 13.2027 14.6805 12.9416 14.9417C12.6805 15.2028 12.3666 15.3333 12 15.3333H3.99996ZM7.33329 10.6667V3.21666L6.26663 4.28332L5.33329 3.33332L7.99996 0.666656L10.6666 3.33332L9.73329 4.28332L8.66663 3.21666V10.6667H7.33329Z" fill="#F1F1F1"/>
</g>
</svg>
