<svg width="14" height="14" viewBox="0 0 14 14" fill="none" xmlns="http://www.w3.org/2000/svg">
<mask id="mask0_8_647" style="mask-type:alpha" maskUnits="userSpaceOnUse" x="0" y="0" width="14" height="14">
<rect width="14" height="14" fill="#D9D9D9"/>
</mask>
<g mask="url(#mask0_8_647)">
<path d="M2.33326 11.6666C2.01243 11.6666 1.73778 11.5524 1.5093 11.3239C1.28083 11.0955 1.1666 10.8208 1.1666 10.5V3.49998C1.1666 3.17915 1.28083 2.90449 1.5093 2.67602C1.73778 2.44755 2.01243 2.33331 2.33326 2.33331H11.6666C11.9874 2.33331 12.2621 2.44755 12.4906 2.67602C12.719 2.90449 12.8333 3.17915 12.8333 3.49998V10.5C12.8333 10.8208 12.719 11.0955 12.4906 11.3239C12.2621 11.5524 11.9874 11.6666 11.6666 11.6666H2.33326ZM6.99993 7.58331L2.33326 4.66665V10.5H11.6666V4.66665L6.99993 7.58331ZM6.99993 6.41665L11.6666 3.49998H2.33326L6.99993 6.41665ZM2.33326 4.66665V3.49998V10.5V4.66665Z" fill="white"/>
</g>
</svg>
